<?xml version="1.0" encoding="UTF-8" standalone="no"?><!DOCTYPE svg PUBLIC "-//W3C//DTD SVG 1.1//EN" "http://www.w3.org/Graphics/SVG/1.1/DTD/svg11.dtd"><svg width="100%" height="100%" viewBox="0 0 220 202" version="1.1" xmlns="http://www.w3.org/2000/svg" xmlns:xlink="http://www.w3.org/1999/xlink" xml:space="preserve" style="fill-rule:evenodd;clip-rule:evenodd;stroke-linejoin:round;stroke-miterlimit:1.41421;"><path d="M35.3,11l148.7,0c13.4,0 24.4,11 24.4,24.4l0,130.6c0,13.4 -11,24.4 -24.4,24.4l-148.7,0c-13.4,0 -24.4,-11 -24.4,-24.4l0,-130.6c0,-13.4 11,-24.4 24.4,-24.4Zm0,-10.9l148.7,0c19.4,0 35.3,15.9 35.3,35.3l0,130.6c0,19.4 -15.9,35.3 -35.3,35.3l-148.7,0c-19.4,0 -35.3,-15.9 -35.3,-35.3l0,-130.6c0,-19.4 15.9,-35.3 35.3,-35.3Z" style="fill:#ff5821;"/><path d="M111.2,59.2l17.6,1.4c1.9,0.2 3.6,-1.1 4.1,-3c0.7,-3 1.9,-6.1 4,-8.1c2.5,-2.5 5.6,-3.5 9.1,-3.5c3.4,0 6.4,1.1 8.9,3.4c2.3,2.3 3.6,5 3.6,8.3c0,3.4 -1.6,6.6 -3.5,9.3c-3.5,4.7 -10.8,10.2 -15.6,13.7c-8.9,6.6 -20.4,15.8 -26.6,25.1c-3.5,5.2 -6,10.9 -7.5,16.9c-0.3,1.2 0,2.3 0.7,3.3c0.8,1 1.8,1.5 3,1.5l64.8,0c14.3,0 14.1,-20.8 0,-20.8l-32.8,0l1.4,-1.3c2.1,-2.1 4.3,-4.1 6.6,-6c3.4,-2.8 7.4,-5.5 11.1,-8c6.4,-4.5 14.8,-11 18.9,-17.8c5.9,-9.7 5.7,-21.7 -0.7,-31.2c-4.8,-7.1 -10.9,-11.1 -19.4,-12.5c-4.5,-0.7 -9.2,-1 -13.7,-1c-6.8,0 -13.7,0.4 -20.1,2.9c-9.9,4 -16.2,12.8 -17.5,23.1c-0.1,1.1 0.1,2.1 0.8,2.9c0.8,0.9 1.7,1.4 2.8,1.4Z" style="fill:#ff5821;fill-rule:nonzero;"/><path d="M70,51.3l4.5,0c6.2,0 13.2,1.2 17.5,6c4.7,5.3 5.3,15.3 5.3,21.9c0,5.2 -0.3,12.6 -2.3,17.4c-1.4,3.2 -3.5,6.1 -6.7,7.8c-3.7,2 -9.8,2.2 -13.9,2.2l-4.4,0c-2.1,0 -3.9,-1.7 -3.9,-3.9l0,-47.5c0,-2.1 1.7,-3.9 3.9,-3.9Zm-32.8,-16.8l0,89.2c0,2.1 1.7,3.9 3.9,3.9l40.6,0c6,0 12.1,-1.1 17.9,-2.7c0.7,-0.2 1.3,-0.4 2,-0.6c1.4,-7.3 4.3,-14.1 8.4,-20.3c3,-4.4 6.8,-8.5 10.7,-12.1c1.7,-1.6 3.5,-3.2 5.3,-4.8c0.2,-2.8 0.3,-5.6 0.3,-8.4c0,-5 -0.5,-10.1 -1.5,-15l-17.4,-1.4c-2,-0.2 -3.6,-1.9 -3.6,-3.9c0.1,-7.2 2.1,-13.8 6.7,-19.8c-2.3,-1.8 -4.9,-3.3 -7.5,-4.5c-6.5,-2.8 -14.3,-3.6 -21.3,-3.6l-40.6,0c-2.1,0.1 -3.9,1.8 -3.9,4Z" style="fill:#ff5821;"/><path d="M40.2,172.8c-3.4,0 -5.1,-1.7 -5.1,-5.2l0,-27.4c0,-3.1 2.1,-5.1 5.1,-5.1c3,0 5.2,2.1 5.2,5.1l0,22.2l14.1,0l11,-24.2c1,-2.2 2.3,-3.1 4.8,-3.1c2.4,0 3.8,0.9 4.7,3.2l10.1,24.2c7.1,0 14.2,0.1 21.3,0.1c1.2,0 2.1,-0.7 2.1,-1.9c0,-1.2 -0.9,-2 -2.1,-2l-5.3,0c-3.7,0 -6.4,-0.9 -8.3,-2.7c-1.9,-1.8 -2.8,-4.6 -2.8,-8.5c0,-8.1 3.9,-12.1 11.8,-12.1c14.1,0 28.2,0 42.4,0c3.1,0 5.2,2.2 5.2,5.2c0,3.1 -2.1,5.2 -5.2,5.2l-12.5,0l0,3.6l10.4,0c2.8,0 4.8,2 4.8,4.8c0,2.8 -2,4.8 -4.8,4.8l-10.4,0l0,3.6c7.3,0 14.6,0 21.9,0l0,-22c0,-3.5 1.7,-5.2 5,-5.2l11.2,0c3.6,0 7.1,1 9.7,3.6c2,2.1 3,5 3,7.9c0,2.6 -0.6,4.7 -1.8,6.5c-1.2,1.8 -2.7,3 -4.5,3.7l5,7.8c4,7.2 -5.4,10.9 -8.2,5.7l-6.3,-11.8c-1.4,-2.7 -0.7,-7.8 3.2,-7.8c2,0 2.9,-1.2 2.9,-3.1c0,-2.1 -1.4,-2.6 -3.3,-2.6l-5.6,0l0,22.4c0,3.6 -1.7,5.3 -5.2,5.3l-32.4,0c-3.4,0 -5.1,-1.7 -5.1,-5.2l0,-21.9c-6.8,0 -13.5,0 -20.3,0c-1.2,0 -2,0.7 -2,2c0,1.2 0.9,1.9 2,1.9l5.3,0c3.8,0 6.6,0.9 8.4,2.7c1.8,1.8 2.7,4.7 2.7,8.6c0,8 -3.9,12 -11.7,12l-24.2,0c-2.1,0 -3.6,-0.8 -4.4,-2.8l-6.8,-19.5l-2.7,6.8l2.1,0l2.6,8.2l-8,0l-1.7,4.1c-1.1,2.8 -2.7,3.2 -4.6,3.2l-22.7,0l0,-0.3Z" style="fill:#ff5821;fill-rule:nonzero;"/></svg>